<?xml version="1.0" encoding="UTF-8"?>
<!DOCTYPE svg PUBLIC "-//W3C//DTD SVG 1.1//EN" "http://www.w3.org/Graphics/SVG/1.1/DTD/svg11.dtd">
<svg xmlns="http://www.w3.org/2000/svg" version="1.1" width="674px" height="187px" style="shape-rendering:geometricPrecision; text-rendering:geometricPrecision; image-rendering:optimizeQuality; fill-rule:evenodd; clip-rule:evenodd" xmlns:xlink="http://www.w3.org/1999/xlink">
<g><path style="opacity:0.133" fill="#eeefee" d="M 101.5,0.5 C 102.833,1.16667 102.833,1.16667 101.5,0.5 Z"/></g>
<g><path style="opacity:0.133" fill="#eeefee" d="M 103.5,0.5 C 104.833,1.16667 104.833,1.16667 103.5,0.5 Z"/></g>
<g><path style="opacity:0.133" fill="#eeefee" d="M 107.5,0.5 C 108.833,1.16667 108.833,1.16667 107.5,0.5 Z"/></g>
<g><path style="opacity:0.133" fill="#eeefee" d="M 487.5,0.5 C 488.833,1.16667 488.833,1.16667 487.5,0.5 Z"/></g>
<g><path style="opacity:0.133" fill="#eeefee" d="M 489.5,0.5 C 490.833,1.16667 490.833,1.16667 489.5,0.5 Z"/></g>
<g><path style="opacity:0.024" fill="#eeefee" d="M 149.5,6.5 C 150.833,7.16667 150.833,7.16667 149.5,6.5 Z"/></g>
<g><path style="opacity:1" fill="#2e9cdb" d="M 145.5,5.5 C 146.496,5.41423 147.329,5.74756 148,6.5C 155.419,26.4226 161.419,46.756 166,67.5C 174.463,107.134 162.629,138.968 130.5,163C 103.732,178.205 76.3988,179.372 48.5,166.5C 47.8076,165.975 47.3076,165.308 47,164.5C 46.8333,162.333 46.6667,160.167 46.5,158C 47.6948,151.818 47.6948,145.652 46.5,139.5C 52.2455,142.876 58.2455,146.043 64.5,149C 98.5119,159.075 124.012,148.575 141,117.5C 142.948,112.658 144.281,107.658 145,102.5C 145.97,70.0899 146.137,37.7566 145.5,5.5 Z"/></g>
<g><path style="opacity:0.133" fill="#eeefee" d="M 505.5,8.5 C 506.833,9.16667 506.833,9.16667 505.5,8.5 Z"/></g>
<g><path style="opacity:0.133" fill="#eeefee" d="M 507.5,8.5 C 508.833,9.16667 508.833,9.16667 507.5,8.5 Z"/></g>
<g><path style="opacity:0.133" fill="#eeefee" d="M 509.5,8.5 C 510.833,9.16667 510.833,9.16667 509.5,8.5 Z"/></g>
<g><path style="opacity:1" fill="#2d9cdb" d="M 82.5,10.5 C 97.6676,10.2772 111.334,13.4439 123.5,20C 124.167,21.6667 124.833,23.3333 125.5,25C 124.686,31.7529 124.186,38.5863 124,45.5C 123.667,45.8333 123.333,46.1667 123,46.5C 97.2268,28.7928 71.7268,29.2928 46.5,48C 36.1896,58.1203 29.6896,70.2869 27,84.5C 27.5363,117.157 27.5363,149.823 27,182.5C 14.3793,154.467 6.54599,125.134 3.5,94.5C 4.86265,58.2513 21.8627,32.418 54.5,17C 63.6942,13.5989 73.0275,11.4322 82.5,10.5 Z"/></g>
<g><path style="opacity:0.004" fill="#eeefee" d="M 123.5,16.5 C 124.833,17.1667 124.833,17.1667 123.5,16.5 Z"/></g>
<g><path style="opacity:0.133" fill="#eeefee" d="M 468.5,19.5 C 469.251,18.4265 470.251,18.2599 471.5,19C 470.552,19.4828 469.552,19.6495 468.5,19.5 Z"/></g>
<g><path style="opacity:0.133" fill="#eeefee" d="M 445.5,20.5 C 446.833,21.1667 446.833,21.1667 445.5,20.5 Z"/></g>
<g><path style="opacity:0.133" fill="#eeefee" d="M 447.5,20.5 C 448.833,21.1667 448.833,21.1667 447.5,20.5 Z"/></g>
<g><path style="opacity:0.133" fill="#eeefee" d="M 449.5,20.5 C 450.833,21.1667 450.833,21.1667 449.5,20.5 Z"/></g>
<g><path style="opacity:0.133" fill="#eeefee" d="M 451.5,20.5 C 452.833,21.1667 452.833,21.1667 451.5,20.5 Z"/></g>
<g><path style="opacity:0.133" fill="#eeefee" d="M 453.5,20.5 C 454.833,21.1667 454.833,21.1667 453.5,20.5 Z"/></g>
<g><path style="opacity:0.133" fill="#eeefee" d="M 468.5,21.5 C 469.601,20.4017 470.934,20.235 472.5,21C 471.207,21.49 469.873,21.6567 468.5,21.5 Z"/></g>
<g><path style="opacity:0.133" fill="#eeefee" d="M 451.5,22.5 C 452.833,23.1667 452.833,23.1667 451.5,22.5 Z"/></g>
<g><path style="opacity:0.133" fill="#eeefee" d="M 455.5,22.5 C 456.833,23.1667 456.833,23.1667 455.5,22.5 Z"/></g>
<g><path style="opacity:0.133" fill="#eeefee" d="M 469.5,22.5 C 470.833,23.1667 470.833,23.1667 469.5,22.5 Z"/></g>
<g><path style="opacity:0.133" fill="#eeefee" d="M 471.5,22.5 C 472.833,23.1667 472.833,23.1667 471.5,22.5 Z"/></g>
<g><path style="opacity:0.133" fill="#eeefee" d="M 476.5,23.5 C 476.897,22.475 477.563,22.3083 478.5,23C 477.906,23.4643 477.239,23.631 476.5,23.5 Z"/></g>
<g><path style="opacity:0.133" fill="#eeefee" d="M 439.5,24.5 C 440.833,25.1667 440.833,25.1667 439.5,24.5 Z"/></g>
<g><path style="opacity:0.133" fill="#eeefee" d="M 441.5,24.5 C 442.833,25.1667 442.833,25.1667 441.5,24.5 Z"/></g>
<g><path style="opacity:0.133" fill="#eeefee" d="M 455.5,24.5 C 456.833,25.1667 456.833,25.1667 455.5,24.5 Z"/></g>
<g><path style="opacity:0.133" fill="#eeefee" d="M 457.5,24.5 C 458.833,25.1667 458.833,25.1667 457.5,24.5 Z"/></g>
<g><path style="opacity:0.133" fill="#eeefee" d="M 469.5,25.5 C 471.628,24.3709 473.961,24.2042 476.5,25C 474.19,25.4966 471.857,25.6633 469.5,25.5 Z"/></g>
<g><path style="opacity:0.031" fill="#eeefee" d="M 125.5,26.5 C 126.833,27.1667 126.833,27.1667 125.5,26.5 Z"/></g>
<g><path style="opacity:0.133" fill="#eeefee" d="M 459.5,26.5 C 460.833,27.1667 460.833,27.1667 459.5,26.5 Z"/></g>
<g><path style="opacity:0.133" fill="#eeefee" d="M 471.5,26.5 C 472.833,27.1667 472.833,27.1667 471.5,26.5 Z"/></g>
<g><path style="opacity:0.133" fill="#eeefee" d="M 473.5,26.5 C 474.833,27.1667 474.833,27.1667 473.5,26.5 Z"/></g>
<g><path style="opacity:0.133" fill="#eeefee" d="M 459.5,28.5 C 460.833,29.1667 460.833,29.1667 459.5,28.5 Z"/></g>
<g><path style="opacity:0.133" fill="#eeefee" d="M 461.5,28.5 C 462.833,29.1667 462.833,29.1667 461.5,28.5 Z"/></g>
<g><path style="opacity:0.133" fill="#eeefee" d="M 471.5,29.5 C 472.251,28.4265 473.251,28.2599 474.5,29C 473.552,29.4828 472.552,29.6495 471.5,29.5 Z"/></g>
<g><path style="opacity:0.133" fill="#eeefee" d="M 471.5,30.5 C 472.833,31.1667 472.833,31.1667 471.5,30.5 Z"/></g>
<g><path style="opacity:0.133" fill="#eeefee" d="M 473.5,30.5 C 474.833,31.1667 474.833,31.1667 473.5,30.5 Z"/></g>
<g><path style="opacity:0.133" fill="#eeefee" d="M 461.5,32.5 C 462.833,33.1667 462.833,33.1667 461.5,32.5 Z"/></g>
<g><path style="opacity:0.133" fill="#eeefee" d="M 463.5,32.5 C 464.833,33.1667 464.833,33.1667 463.5,32.5 Z"/></g>
<g><path style="opacity:0.133" fill="#eeefee" d="M 471.5,32.5 C 472.833,33.1667 472.833,33.1667 471.5,32.5 Z"/></g>
<g><path style="opacity:0.133" fill="#eeefee" d="M 473.5,32.5 C 474.833,33.1667 474.833,33.1667 473.5,32.5 Z"/></g>
<g><path style="opacity:1" fill="#f1f1f1" d="M 338.5,33.5 C 348.18,32.3306 353.847,36.4973 355.5,46C 354.556,53.9048 350.056,58.0715 342,58.5C 330.286,56.0234 326.952,49.3568 332,38.5C 333.805,36.1743 335.972,34.5077 338.5,33.5 Z"/></g>
<g><path style="opacity:1" fill="#c8c8c8" d="M 191.5,42.5 C 196.823,41.8339 202.323,41.5006 208,41.5C 213.876,41.5048 219.376,42.1714 224.5,43.5C 213.581,42.5234 202.581,42.1901 191.5,42.5 Z"/></g>
<g><path style="opacity:1" fill="#cacaca" d="M 279.5,42.5 C 290.321,41.5054 301.321,41.1721 312.5,41.5C 313.103,46.6186 312.436,51.2853 310.5,55.5C 311.436,51.2648 311.769,46.9315 311.5,42.5C 300.833,42.5 290.167,42.5 279.5,42.5 Z"/></g>
<g><path style="opacity:1" fill="#f7f7f7" d="M 191.5,42.5 C 202.581,42.1901 213.581,42.5234 224.5,43.5C 233.612,67.0783 242.778,90.7449 252,114.5C 261.077,90.4323 270.243,66.4323 279.5,42.5C 290.167,42.5 300.833,42.5 311.5,42.5C 311.769,46.9315 311.436,51.2648 310.5,55.5C 307.936,55.9787 305.436,56.6453 303,57.5C 303.243,83.5412 304.41,109.541 306.5,135.5C 310.042,135.187 313.375,135.521 316.5,136.5C 315.515,140.634 315.182,144.968 315.5,149.5C 302.833,149.5 290.167,149.5 277.5,149.5C 277.5,145.5 277.5,141.5 277.5,137.5C 278.791,137.737 279.791,137.404 280.5,136.5C 285.095,136.693 287.095,134.527 286.5,130C 285.444,113.833 284.444,97.6661 283.5,81.5C 284.608,76.2878 284.608,74.9544 283.5,77.5C 275.073,98.2033 266.74,119.037 258.5,140C 253.136,140.829 247.802,140.663 242.5,139.5C 234.667,119.167 226.833,98.8333 219,78.5C 217.641,93.8396 216.474,109.173 215.5,124.5C 214.517,128.298 214.183,132.298 214.5,136.5C 217.833,136.5 221.167,136.5 224.5,136.5C 224.5,140.833 224.5,145.167 224.5,149.5C 212.167,149.5 199.833,149.5 187.5,149.5C 187.5,145.5 187.5,141.5 187.5,137.5C 188.791,137.737 189.791,137.404 190.5,136.5C 192.821,136.342 194.654,135.342 196,133.5C 198.464,107.973 199.63,82.4728 199.5,57C 196.854,56.5026 194.187,56.3359 191.5,56.5C 191.5,51.8333 191.5,47.1667 191.5,42.5 Z"/></g>
<g><path style="opacity:0.133" fill="#eeefee" d="M 412.5,43.5 C 413.601,42.4017 414.934,42.235 416.5,43C 415.207,43.49 413.873,43.6567 412.5,43.5 Z"/></g>
<g><path style="opacity:0.133" fill="#eeefee" d="M 411.5,45.5 C 412.251,44.4265 413.251,44.2599 414.5,45C 413.552,45.4828 412.552,45.6495 411.5,45.5 Z"/></g>
<g><path style="opacity:0.133" fill="#eeefee" d="M 409.5,46.5 C 410.833,47.1667 410.833,47.1667 409.5,46.5 Z"/></g>
<g><path style="opacity:0.133" fill="#eeefee" d="M 411.5,46.5 C 412.833,47.1667 412.833,47.1667 411.5,46.5 Z"/></g>
<g><path style="opacity:0.133" fill="#eeefee" d="M 408.5,49.5 C 408.897,48.475 409.563,48.3083 410.5,49C 409.906,49.4643 409.239,49.631 408.5,49.5 Z"/></g>
<g><path style="opacity:0.133" fill="#eeefee" d="M 430.5,49.5 C 431.601,48.4017 432.934,48.235 434.5,49C 433.207,49.49 431.873,49.6567 430.5,49.5 Z"/></g>
<g><path style="opacity:0.133" fill="#eeefee" d="M 409.5,50.5 C 410.833,51.1667 410.833,51.1667 409.5,50.5 Z"/></g>
<g><path style="opacity:0.133" fill="#eeefee" d="M 427.5,50.5 C 428.833,51.1667 428.833,51.1667 427.5,50.5 Z"/></g>
<g><path style="opacity:0.133" fill="#eeefee" d="M 429.5,50.5 C 430.833,51.1667 430.833,51.1667 429.5,50.5 Z"/></g>
<g><path style="opacity:0.133" fill="#eeefee" d="M 431.5,51.5 C 432.251,50.4265 433.251,50.2599 434.5,51C 433.552,51.4828 432.552,51.6495 431.5,51.5 Z"/></g>
<g><path style="opacity:0.133" fill="#eeefee" d="M 435.5,50.5 C 436.833,51.1667 436.833,51.1667 435.5,50.5 Z"/></g>
<g><path style="opacity:1" fill="#f4f4f4" d="M 421.5,78.5 C 420.596,79.209 420.263,80.209 420.5,81.5C 413.833,81.5 407.167,81.5 400.5,81.5C 400.17,98.0085 400.504,114.342 401.5,130.5C 403.158,134.606 406.324,136.939 411,137.5C 415.002,137.036 418.669,135.702 422,133.5C 425.038,137.852 426.538,142.519 426.5,147.5C 414.37,153.446 402.036,153.946 389.5,149C 386.567,146.736 384.4,143.902 383,140.5C 381.537,121.235 381.037,101.901 381.5,82.5C 377.445,82.8242 373.445,82.4909 369.5,81.5C 370.445,77.552 371.112,73.552 371.5,69.5C 377.815,68.924 382.649,65.924 386,60.5C 387.645,57.3785 389.145,54.2118 390.5,51C 394.152,50.5014 397.818,50.3347 401.5,50.5C 401.5,56.5 401.5,62.5 401.5,68.5C 408.5,68.5 415.5,68.5 422.5,68.5C 422.658,71.9023 422.324,75.2356 421.5,78.5 Z"/></g>
<g><path style="opacity:0.133" fill="#eeefee" d="M 407.5,52.5 C 408.833,53.1667 408.833,53.1667 407.5,52.5 Z"/></g>
<g><path style="opacity:0.133" fill="#eeefee" d="M 409.5,52.5 C 410.833,53.1667 410.833,53.1667 409.5,52.5 Z"/></g>
<g><path style="opacity:0.133" fill="#eeefee" d="M 423.5,53.5 C 424.251,52.4265 425.251,52.2599 426.5,53C 425.552,53.4828 424.552,53.6495 423.5,53.5 Z"/></g>
<g><path style="opacity:0.133" fill="#eeefee" d="M 427.5,52.5 C 428.833,53.1667 428.833,53.1667 427.5,52.5 Z"/></g>
<g><path style="opacity:0.133" fill="#eeefee" d="M 434.5,53.5 C 435.251,52.4265 436.251,52.2599 437.5,53C 436.552,53.4828 435.552,53.6495 434.5,53.5 Z"/></g>
<g><path style="opacity:0.133" fill="#eeefee" d="M 435.5,54.5 C 436.833,55.1667 436.833,55.1667 435.5,54.5 Z"/></g>
<g><path style="opacity:0.133" fill="#eeefee" d="M 437.5,54.5 C 438.833,55.1667 438.833,55.1667 437.5,54.5 Z"/></g>
<g><path style="opacity:0.133" fill="#eeefee" d="M 409.5,56.5 C 410.833,57.1667 410.833,57.1667 409.5,56.5 Z"/></g>
<g><path style="opacity:0.133" fill="#eeefee" d="M 411.5,56.5 C 412.833,57.1667 412.833,57.1667 411.5,56.5 Z"/></g>
<g><path style="opacity:0.133" fill="#eeefee" d="M 435.5,57.5 C 436.601,56.4017 437.934,56.235 439.5,57C 438.207,57.49 436.873,57.6567 435.5,57.5 Z"/></g>
<g><path style="opacity:0.133" fill="#eeefee" d="M 435.5,58.5 C 436.833,59.1667 436.833,59.1667 435.5,58.5 Z"/></g>
<g><path style="opacity:0.133" fill="#eeefee" d="M 437.5,58.5 C 438.833,59.1667 438.833,59.1667 437.5,58.5 Z"/></g>
<g><path style="opacity:1" fill="#dc150a" d="M 81.5,58.5 C 107.953,59.4513 120.786,73.118 120,99.5C 114.105,120.537 100.272,129.703 78.5,127C 58.9944,121.137 50.161,107.97 52,87.5C 55.7968,71.5353 65.6301,61.8686 81.5,58.5 Z"/></g>
<g><path style="opacity:0.133" fill="#eeefee" d="M 433.5,60.5 C 434.833,61.1667 434.833,61.1667 433.5,60.5 Z"/></g>
<g><path style="opacity:0.133" fill="#eeefee" d="M 435.5,60.5 C 436.833,61.1667 436.833,61.1667 435.5,60.5 Z"/></g>
<g><path style="opacity:0.133" fill="#eeefee" d="M 431.5,64.5 C 432.833,65.1667 432.833,65.1667 431.5,64.5 Z"/></g>
<g><path style="opacity:1" fill="#f5f5f5" d="M 496.5,75.5 C 496.427,77.0269 497.094,78.0269 498.5,78.5C 504.33,96.6668 497.997,108.833 479.5,115C 471.616,116.985 463.616,118.152 455.5,118.5C 455.207,121.754 455.874,124.754 457.5,127.5C 456.527,129.292 457.194,130.625 459.5,131.5C 471.452,138.448 483.119,137.781 494.5,129.5C 496.098,131.698 497.431,134.031 498.5,136.5C 497.892,138.684 498.559,140.684 500.5,142.5C 501.738,142.81 501.738,143.31 500.5,144C 483.199,154.465 465.532,155.131 447.5,146C 437.773,136.833 433.106,125.5 433.5,112C 433.343,95.7723 439.343,82.4389 451.5,72C 465.914,63.4409 480.248,63.4409 494.5,72C 495.823,72.8159 496.489,73.9826 496.5,75.5 Z M 468.5,80.5 C 472.7,80.1901 476.7,80.8568 480.5,82.5C 483.81,89.0789 482.477,94.5789 476.5,99C 472.154,100.836 467.821,102.336 463.5,103.5C 460.5,103.5 457.5,103.5 454.5,103.5C 454.5,102.167 454.5,100.833 454.5,99.5C 456.044,90.7002 460.71,84.3669 468.5,80.5 Z"/></g>
<g><path style="opacity:1" fill="#f4f4f4" d="M 626.5,127.5 C 625.285,128.779 625.618,129.779 627.5,130.5C 639.543,138.536 651.543,138.203 663.5,129.5C 666.231,133.796 668.565,138.296 670.5,143C 656.351,152.681 641.018,155.015 624.5,150C 614.507,146.007 608.007,138.84 605,128.5C 599.998,109.496 603.331,92.1623 615,76.5C 630.178,63.8778 646.344,62.3778 663.5,72C 671.299,81.9554 672.132,92.4554 666,103.5C 661.229,108.936 655.395,112.769 648.5,115C 640.616,116.985 632.616,118.152 624.5,118.5C 624.207,121.754 624.874,124.754 626.5,127.5 Z M 636.5,80.5 C 648.181,78.6751 652.681,83.3417 650,94.5C 642.584,101.361 633.751,104.361 623.5,103.5C 623.474,93.2034 627.808,85.5367 636.5,80.5 Z"/></g>
<g><path style="opacity:1" fill="#6c6c6c" d="M 325.5,68.5 C 325.5,72.8333 325.5,77.1667 325.5,81.5C 327.735,81.2053 329.735,81.5386 331.5,82.5C 329.167,82.5 326.833,82.5 324.5,82.5C 324.181,77.6367 324.514,72.97 325.5,68.5 Z"/></g>
<g><path style="opacity:1" fill="#fcfcfc" d="M 325.5,68.5 C 335.167,68.5 344.833,68.5 354.5,68.5C 354.5,91.1667 354.5,113.833 354.5,136.5C 356.361,137.507 359.028,137.84 362.5,137.5C 362.5,141.5 362.5,145.5 362.5,149.5C 349.656,149.171 336.989,149.505 324.5,150.5C 323.355,146.689 323.188,142.689 324,138.5C 326.66,137.166 329.494,136.332 332.5,136C 333.191,134.933 333.691,133.766 334,132.5C 334.667,117.167 334.667,101.833 334,86.5C 333.8,84.6803 332.966,83.347 331.5,82.5C 329.735,81.5386 327.735,81.2053 325.5,81.5C 325.5,77.1667 325.5,72.8333 325.5,68.5 Z"/></g>
<g><path style="opacity:1" fill="#b7b7b7" d="M 508.5,68.5 C 508.5,72.5 508.5,76.5 508.5,80.5C 510.099,80.2322 511.432,80.5655 512.5,81.5C 510.833,81.5 509.167,81.5 507.5,81.5C 507.182,76.9677 507.515,72.6344 508.5,68.5 Z"/></g>
<g><path style="opacity:1" fill="#f7f7f7" d="M 508.5,68.5 C 521.167,68.5 533.833,68.5 546.5,68.5C 546.5,72.8333 546.5,77.1667 546.5,81.5C 543.545,82.1587 540.545,82.4921 537.5,82.5C 542.463,99.7169 547.796,116.717 553.5,133.5C 552.537,134.363 552.537,135.03 553.5,135.5C 554.386,134.675 554.719,133.675 554.5,132.5C 558.998,115.841 563.998,99.341 569.5,83C 566.776,82.7305 564.109,82.2305 561.5,81.5C 560.508,77.2172 560.174,72.8839 560.5,68.5C 572.167,68.5 583.833,68.5 595.5,68.5C 595.5,72.8333 595.5,77.1667 595.5,81.5C 591.987,80.8757 589.153,81.8757 587,84.5C 580.097,106.374 572.93,128.041 565.5,149.5C 556.566,150.092 547.899,149.425 539.5,147.5C 531.598,126.304 523.765,104.97 516,83.5C 514.887,82.695 513.721,82.0283 512.5,81.5C 511.432,80.5655 510.099,80.2322 508.5,80.5C 508.5,76.5 508.5,72.5 508.5,68.5 Z"/></g>
<g><path style="opacity:1" fill="#808080" d="M 283.5,81.5 C 283.5,80.1667 283.5,78.8333 283.5,77.5C 284.608,74.9544 284.608,76.2878 283.5,81.5 Z"/></g>
<g><path style="opacity:1" fill="#787878" d="M 496.5,75.5 C 497.906,75.9731 498.573,76.9731 498.5,78.5C 497.094,78.0269 496.427,77.0269 496.5,75.5 Z"/></g>
<g><path style="opacity:1" fill="#8f8f8f" d="M 468.5,80.5 C 471.304,79.3622 474.304,79.1955 477.5,80C 478.942,80.3768 479.942,81.2101 480.5,82.5C 476.7,80.8568 472.7,80.1901 468.5,80.5 Z"/></g>
<g><path style="opacity:0.133" fill="#eeefee" d="M 357.5,82.5 C 358.833,83.1667 358.833,83.1667 357.5,82.5 Z"/></g>
<g><path style="opacity:0.133" fill="#eeefee" d="M 357.5,84.5 C 358.833,85.1667 358.833,85.1667 357.5,84.5 Z"/></g>
<g><path style="opacity:0.133" fill="#eeefee" d="M 359.5,84.5 C 360.833,85.1667 360.833,85.1667 359.5,84.5 Z"/></g>
<g><path style="opacity:0.133" fill="#eeefee" d="M 359.5,88.5 C 360.833,89.1667 360.833,89.1667 359.5,88.5 Z"/></g>
<g><path style="opacity:0.133" fill="#eeefee" d="M 361.5,88.5 C 362.833,89.1667 362.833,89.1667 361.5,88.5 Z"/></g>
<g><path style="opacity:1" fill="#929292" d="M 421.5,78.5 C 421.5,79.8333 421.5,81.1667 421.5,82.5C 415.071,82.6906 408.737,82.6906 402.5,82.5C 402.167,82.8333 401.833,83.1667 401.5,83.5C 405.311,84.7376 405.311,85.4042 401.5,85.5C 401.5,100.5 401.5,115.5 401.5,130.5C 400.504,114.342 400.17,98.0085 400.5,81.5C 407.167,81.5 413.833,81.5 420.5,81.5C 420.263,80.209 420.596,79.209 421.5,78.5 Z"/></g>
<g><path style="opacity:1" fill="#9b9b9b" d="M 454.5,99.5 C 454.5,100.833 454.5,102.167 454.5,103.5C 457.5,103.5 460.5,103.5 463.5,103.5C 460.375,104.479 457.042,104.813 453.5,104.5C 453.216,102.585 453.549,100.919 454.5,99.5 Z"/></g>
<g><path style="opacity:1" fill="#767676" d="M 457.5,127.5 C 458.6,128.605 459.267,129.938 459.5,131.5C 457.194,130.625 456.527,129.292 457.5,127.5 Z"/></g>
<g><path style="opacity:1" fill="#6e6e6e" d="M 626.5,127.5 C 627.11,128.391 627.443,129.391 627.5,130.5C 625.618,129.779 625.285,128.779 626.5,127.5 Z"/></g>
<g><path style="opacity:1" fill="#686868" d="M 554.5,132.5 C 554.719,133.675 554.386,134.675 553.5,135.5C 552.537,135.03 552.537,134.363 553.5,133.5C 553.5,132.833 553.833,132.5 554.5,132.5 Z"/></g>
<g><path style="opacity:1" fill="#7e7e7e" d="M 498.5,136.5 C 499.73,138.297 500.396,140.297 500.5,142.5C 498.559,140.684 497.892,138.684 498.5,136.5 Z"/></g>
<g><path style="opacity:1" fill="#939393" d="M 215.5,124.5 C 215.5,128.167 215.5,131.833 215.5,135.5C 218.833,135.5 222.167,135.5 225.5,135.5C 225.5,140.5 225.5,145.5 225.5,150.5C 212.5,150.5 199.5,150.5 186.5,150.5C 186.5,145.833 186.5,141.167 186.5,136.5C 187.833,136.5 189.167,136.5 190.5,136.5C 189.791,137.404 188.791,137.737 187.5,137.5C 187.5,141.5 187.5,145.5 187.5,149.5C 199.833,149.5 212.167,149.5 224.5,149.5C 224.5,145.167 224.5,140.833 224.5,136.5C 221.167,136.5 217.833,136.5 214.5,136.5C 214.183,132.298 214.517,128.298 215.5,124.5 Z"/></g>
<g><path style="opacity:1" fill="#949494" d="M 280.5,136.5 C 279.791,137.404 278.791,137.737 277.5,137.5C 277.5,141.5 277.5,145.5 277.5,149.5C 290.167,149.5 302.833,149.5 315.5,149.5C 315.182,144.968 315.515,140.634 316.5,136.5C 316.5,141.167 316.5,145.833 316.5,150.5C 303.167,150.5 289.833,150.5 276.5,150.5C 276.5,145.833 276.5,141.167 276.5,136.5C 277.833,136.5 279.167,136.5 280.5,136.5 Z"/></g>
<g><path style="opacity:1" fill="#979797" d="M 354.5,136.5 C 357.5,136.5 360.5,136.5 363.5,136.5C 363.5,141.167 363.5,145.833 363.5,150.5C 350.5,150.5 337.5,150.5 324.5,150.5C 336.989,149.505 349.656,149.171 362.5,149.5C 362.5,145.5 362.5,141.5 362.5,137.5C 359.028,137.84 356.361,137.507 354.5,136.5 Z"/></g>
<g><path style="opacity:1" fill="#9c9c9c" d="M 539.5,147.5 C 547.899,149.425 556.566,150.092 565.5,149.5C 557.016,150.493 548.349,150.826 539.5,150.5C 539.5,149.5 539.5,148.5 539.5,147.5 Z"/></g>
<g><path style="opacity:0.133" fill="#eeefee" d="M 574.5,172.5 C 575.833,173.167 575.833,173.167 574.5,172.5 Z"/></g>
<g><path style="opacity:0.133" fill="#eeefee" d="M 209.5,184.5 C 210.833,185.167 210.833,185.167 209.5,184.5 Z"/></g>
<g><path style="opacity:0.133" fill="#eeefee" d="M 211.5,184.5 C 212.833,185.167 212.833,185.167 211.5,184.5 Z"/></g>
<g><path style="opacity:0.133" fill="#eeefee" d="M 571.5,185.5 C 572.946,184.387 574.613,184.22 576.5,185C 574.866,185.494 573.199,185.66 571.5,185.5 Z"/></g>
</svg>
