<?xml version="1.0" encoding="UTF-8"?>
<!DOCTYPE svg PUBLIC "-//W3C//DTD SVG 1.1//EN" "http://www.w3.org/Graphics/SVG/1.1/DTD/svg11.dtd">
<svg xmlns="http://www.w3.org/2000/svg" version="1.1" width="674px" height="187px" style="shape-rendering:geometricPrecision; text-rendering:geometricPrecision; image-rendering:optimizeQuality; fill-rule:evenodd; clip-rule:evenodd" xmlns:xlink="http://www.w3.org/1999/xlink">
<g><path style="opacity:0.133" fill="#eeefee" d="M 101.5,0.5 C 102.833,1.16667 102.833,1.16667 101.5,0.5 Z"/></g>
<g><path style="opacity:0.133" fill="#eeefee" d="M 103.5,0.5 C 104.833,1.16667 104.833,1.16667 103.5,0.5 Z"/></g>
<g><path style="opacity:0.133" fill="#eeefee" d="M 107.5,0.5 C 108.833,1.16667 108.833,1.16667 107.5,0.5 Z"/></g>
<g><path style="opacity:0.133" fill="#eeefee" d="M 487.5,0.5 C 488.833,1.16667 488.833,1.16667 487.5,0.5 Z"/></g>
<g><path style="opacity:0.133" fill="#eeefee" d="M 489.5,0.5 C 490.833,1.16667 490.833,1.16667 489.5,0.5 Z"/></g>
<g><path style="opacity:0.024" fill="#eeefee" d="M 149.5,6.5 C 150.833,7.16667 150.833,7.16667 149.5,6.5 Z"/></g>
<g><path style="opacity:1" fill="#2e9cdb" d="M 145.5,5.5 C 146.496,5.41423 147.329,5.74756 148,6.5C 155.419,26.4226 161.419,46.756 166,67.5C 174.463,107.134 162.629,138.968 130.5,163C 103.732,178.205 76.3988,179.372 48.5,166.5C 47.8076,165.975 47.3076,165.308 47,164.5C 46.8333,162.333 46.6667,160.167 46.5,158C 47.6948,151.818 47.6948,145.652 46.5,139.5C 52.2455,142.876 58.2455,146.043 64.5,149C 98.5119,159.075 124.012,148.575 141,117.5C 142.948,112.658 144.281,107.658 145,102.5C 145.97,70.0899 146.137,37.7566 145.5,5.5 Z"/></g>
<g><path style="opacity:0.133" fill="#eeefee" d="M 505.5,8.5 C 506.833,9.16667 506.833,9.16667 505.5,8.5 Z"/></g>
<g><path style="opacity:0.133" fill="#eeefee" d="M 507.5,8.5 C 508.833,9.16667 508.833,9.16667 507.5,8.5 Z"/></g>
<g><path style="opacity:0.133" fill="#eeefee" d="M 509.5,8.5 C 510.833,9.16667 510.833,9.16667 509.5,8.5 Z"/></g>
<g><path style="opacity:1" fill="#2d9cdb" d="M 82.5,10.5 C 97.6676,10.2772 111.334,13.4439 123.5,20C 124.167,21.6667 124.833,23.3333 125.5,25C 124.686,31.7529 124.186,38.5863 124,45.5C 123.667,45.8333 123.333,46.1667 123,46.5C 97.2268,28.7928 71.7268,29.2928 46.5,48C 36.1896,58.1203 29.6896,70.2869 27,84.5C 27.5363,117.157 27.5363,149.823 27,182.5C 14.3793,154.467 6.54599,125.134 3.5,94.5C 4.86265,58.2513 21.8627,32.418 54.5,17C 63.6942,13.5989 73.0275,11.4322 82.5,10.5 Z"/></g>
<g><path style="opacity:0.004" fill="#eeefee" d="M 123.5,16.5 C 124.833,17.1667 124.833,17.1667 123.5,16.5 Z"/></g>
<g><path style="opacity:0.133" fill="#eeefee" d="M 468.5,19.5 C 469.251,18.4265 470.251,18.2599 471.5,19C 470.552,19.4828 469.552,19.6495 468.5,19.5 Z"/></g>
<g><path style="opacity:0.133" fill="#eeefee" d="M 445.5,20.5 C 446.833,21.1667 446.833,21.1667 445.5,20.5 Z"/></g>
<g><path style="opacity:0.133" fill="#eeefee" d="M 447.5,20.5 C 448.833,21.1667 448.833,21.1667 447.5,20.5 Z"/></g>
<g><path style="opacity:0.133" fill="#eeefee" d="M 449.5,20.5 C 450.833,21.1667 450.833,21.1667 449.5,20.5 Z"/></g>
<g><path style="opacity:0.133" fill="#eeefee" d="M 451.5,20.5 C 452.833,21.1667 452.833,21.1667 451.5,20.5 Z"/></g>
<g><path style="opacity:0.133" fill="#eeefee" d="M 453.5,20.5 C 454.833,21.1667 454.833,21.1667 453.5,20.5 Z"/></g>
<g><path style="opacity:0.133" fill="#eeefee" d="M 468.5,21.5 C 469.601,20.4017 470.934,20.235 472.5,21C 471.207,21.49 469.873,21.6567 468.5,21.5 Z"/></g>
<g><path style="opacity:0.133" fill="#eeefee" d="M 451.5,22.5 C 452.833,23.1667 452.833,23.1667 451.5,22.5 Z"/></g>
<g><path style="opacity:0.133" fill="#eeefee" d="M 455.5,22.5 C 456.833,23.1667 456.833,23.1667 455.5,22.5 Z"/></g>
<g><path style="opacity:0.133" fill="#eeefee" d="M 469.5,22.5 C 470.833,23.1667 470.833,23.1667 469.5,22.5 Z"/></g>
<g><path style="opacity:0.133" fill="#eeefee" d="M 471.5,22.5 C 472.833,23.1667 472.833,23.1667 471.5,22.5 Z"/></g>
<g><path style="opacity:0.133" fill="#eeefee" d="M 476.5,23.5 C 476.897,22.475 477.563,22.3083 478.5,23C 477.906,23.4643 477.239,23.631 476.5,23.5 Z"/></g>
<g><path style="opacity:0.133" fill="#eeefee" d="M 439.5,24.5 C 440.833,25.1667 440.833,25.1667 439.5,24.5 Z"/></g>
<g><path style="opacity:0.133" fill="#eeefee" d="M 441.5,24.5 C 442.833,25.1667 442.833,25.1667 441.5,24.5 Z"/></g>
<g><path style="opacity:0.133" fill="#eeefee" d="M 455.5,24.5 C 456.833,25.1667 456.833,25.1667 455.5,24.5 Z"/></g>
<g><path style="opacity:0.133" fill="#eeefee" d="M 457.5,24.5 C 458.833,25.1667 458.833,25.1667 457.5,24.5 Z"/></g>
<g><path style="opacity:0.133" fill="#eeefee" d="M 469.5,25.5 C 471.628,24.3709 473.961,24.2042 476.5,25C 474.19,25.4966 471.857,25.6633 469.5,25.5 Z"/></g>
<g><path style="opacity:0.031" fill="#eeefee" d="M 125.5,26.5 C 126.833,27.1667 126.833,27.1667 125.5,26.5 Z"/></g>
<g><path style="opacity:0.133" fill="#eeefee" d="M 459.5,26.5 C 460.833,27.1667 460.833,27.1667 459.5,26.5 Z"/></g>
<g><path style="opacity:0.133" fill="#eeefee" d="M 471.5,26.5 C 472.833,27.1667 472.833,27.1667 471.5,26.5 Z"/></g>
<g><path style="opacity:0.133" fill="#eeefee" d="M 473.5,26.5 C 474.833,27.1667 474.833,27.1667 473.5,26.5 Z"/></g>
<g><path style="opacity:0.133" fill="#eeefee" d="M 459.5,28.5 C 460.833,29.1667 460.833,29.1667 459.5,28.5 Z"/></g>
<g><path style="opacity:0.133" fill="#eeefee" d="M 461.5,28.5 C 462.833,29.1667 462.833,29.1667 461.5,28.5 Z"/></g>
<g><path style="opacity:0.133" fill="#eeefee" d="M 471.5,29.5 C 472.251,28.4265 473.251,28.2599 474.5,29C 473.552,29.4828 472.552,29.6495 471.5,29.5 Z"/></g>
<g><path style="opacity:0.133" fill="#eeefee" d="M 471.5,30.5 C 472.833,31.1667 472.833,31.1667 471.5,30.5 Z"/></g>
<g><path style="opacity:0.133" fill="#eeefee" d="M 473.5,30.5 C 474.833,31.1667 474.833,31.1667 473.5,30.5 Z"/></g>
<g><path style="opacity:0.133" fill="#eeefee" d="M 461.5,32.5 C 462.833,33.1667 462.833,33.1667 461.5,32.5 Z"/></g>
<g><path style="opacity:0.133" fill="#eeefee" d="M 463.5,32.5 C 464.833,33.1667 464.833,33.1667 463.5,32.5 Z"/></g>
<g><path style="opacity:0.133" fill="#eeefee" d="M 471.5,32.5 C 472.833,33.1667 472.833,33.1667 471.5,32.5 Z"/></g>
<g><path style="opacity:0.133" fill="#eeefee" d="M 473.5,32.5 C 474.833,33.1667 474.833,33.1667 473.5,32.5 Z"/></g>
<g><path style="opacity:1" fill="#3e3e3e" d="M 338.5,33.5 C 348.18,32.3306 353.847,36.4973 355.5,46C 354.556,53.9048 350.056,58.0715 342,58.5C 330.286,56.0234 326.952,49.3568 332,38.5C 333.805,36.1743 335.972,34.5077 338.5,33.5 Z"/></g>
<g><path style="opacity:1" fill="#cccccc" d="M 279.5,42.5 C 290.321,41.5054 301.321,41.1721 312.5,41.5C 312.819,46.3633 312.486,51.03 311.5,55.5C 311.5,51.1667 311.5,46.8333 311.5,42.5C 300.833,42.5 290.167,42.5 279.5,42.5 Z"/></g>
<g><path style="opacity:1" fill="#393939" d="M 279.5,42.5 C 290.167,42.5 300.833,42.5 311.5,42.5C 311.5,46.8333 311.5,51.1667 311.5,55.5C 308.572,55.8516 305.738,56.5183 303,57.5C 303.43,82.1707 304.263,106.837 305.5,131.5C 305.5,133.167 305.5,134.833 305.5,136.5C 308.833,136.5 312.167,136.5 315.5,136.5C 315.5,140.833 315.5,145.167 315.5,149.5C 302.833,149.5 290.167,149.5 277.5,149.5C 277.5,145.5 277.5,141.5 277.5,137.5C 278.791,137.737 279.791,137.404 280.5,136.5C 285.095,136.693 287.095,134.527 286.5,130C 285.361,116.189 284.694,102.356 284.5,88.5C 284.666,83.8215 284.499,79.1548 284,74.5C 282.961,75.2438 282.461,76.2438 282.5,77.5C 274.92,98.4933 266.92,119.327 258.5,140C 253.136,140.829 247.802,140.663 242.5,139.5C 235.43,121.953 228.763,104.287 222.5,86.5C 222.771,84.6203 222.104,83.287 220.5,82.5C 219.766,81.2921 219.433,79.9587 219.5,78.5C 219.539,77.2438 219.039,76.2438 218,75.5C 217.502,78.4816 217.335,81.4816 217.5,84.5C 217.043,101.509 216.377,118.509 215.5,135.5C 218.833,135.5 222.167,135.5 225.5,135.5C 225.5,140.167 225.5,144.833 225.5,149.5C 212.833,149.5 200.167,149.5 187.5,149.5C 187.5,145.167 187.5,140.833 187.5,136.5C 190.914,136.927 193.748,135.927 196,133.5C 197.715,111.508 199.215,89.5081 200.5,67.5C 201.161,65.866 201.494,64.0326 201.5,62C 201.453,59.7047 200.787,57.8714 199.5,56.5C 196.833,56.5 194.167,56.5 191.5,56.5C 191.5,51.5 191.5,46.5 191.5,41.5C 202.52,41.1679 213.52,41.5012 224.5,42.5C 233.389,66.6105 242.556,90.6105 252,114.5C 261.077,90.4323 270.243,66.4323 279.5,42.5 Z"/></g>
<g><path style="opacity:0.133" fill="#eeefee" d="M 412.5,43.5 C 413.601,42.4017 414.934,42.235 416.5,43C 415.207,43.49 413.873,43.6567 412.5,43.5 Z"/></g>
<g><path style="opacity:0.133" fill="#eeefee" d="M 411.5,45.5 C 412.251,44.4265 413.251,44.2599 414.5,45C 413.552,45.4828 412.552,45.6495 411.5,45.5 Z"/></g>
<g><path style="opacity:0.133" fill="#eeefee" d="M 409.5,46.5 C 410.833,47.1667 410.833,47.1667 409.5,46.5 Z"/></g>
<g><path style="opacity:0.133" fill="#eeefee" d="M 411.5,46.5 C 412.833,47.1667 412.833,47.1667 411.5,46.5 Z"/></g>
<g><path style="opacity:0.133" fill="#eeefee" d="M 408.5,49.5 C 408.897,48.475 409.563,48.3083 410.5,49C 409.906,49.4643 409.239,49.631 408.5,49.5 Z"/></g>
<g><path style="opacity:0.133" fill="#eeefee" d="M 430.5,49.5 C 431.601,48.4017 432.934,48.235 434.5,49C 433.207,49.49 431.873,49.6567 430.5,49.5 Z"/></g>
<g><path style="opacity:0.133" fill="#eeefee" d="M 409.5,50.5 C 410.833,51.1667 410.833,51.1667 409.5,50.5 Z"/></g>
<g><path style="opacity:0.133" fill="#eeefee" d="M 427.5,50.5 C 428.833,51.1667 428.833,51.1667 427.5,50.5 Z"/></g>
<g><path style="opacity:0.133" fill="#eeefee" d="M 429.5,50.5 C 430.833,51.1667 430.833,51.1667 429.5,50.5 Z"/></g>
<g><path style="opacity:0.133" fill="#eeefee" d="M 431.5,51.5 C 432.251,50.4265 433.251,50.2599 434.5,51C 433.552,51.4828 432.552,51.6495 431.5,51.5 Z"/></g>
<g><path style="opacity:0.133" fill="#eeefee" d="M 435.5,50.5 C 436.833,51.1667 436.833,51.1667 435.5,50.5 Z"/></g>
<g><path style="opacity:1" fill="#373737" d="M 390.5,51.5 C 393.833,51.5 397.167,51.5 400.5,51.5C 400.178,57.358 400.511,63.0247 401.5,68.5C 408.5,68.5 415.5,68.5 422.5,68.5C 422.658,71.9023 422.324,75.2356 421.5,78.5C 420.596,79.209 420.263,80.209 420.5,81.5C 413.978,81.1765 407.645,81.5098 401.5,82.5C 400.167,97.5 400.167,112.5 401.5,127.5C 401.713,133.548 404.88,136.882 411,137.5C 415.002,137.036 418.669,135.702 422,133.5C 425.038,137.852 426.538,142.519 426.5,147.5C 414.37,153.446 402.036,153.946 389.5,149C 386.567,146.736 384.4,143.902 383,140.5C 381.537,121.235 381.037,101.901 381.5,82.5C 377.833,81.8333 374.167,81.1667 370.5,80.5C 370.552,76.8019 370.886,73.1352 371.5,69.5C 375.229,69.424 378.562,68.2574 381.5,66C 385.415,61.6565 388.415,56.8232 390.5,51.5 Z"/></g>
<g><path style="opacity:0.133" fill="#eeefee" d="M 407.5,52.5 C 408.833,53.1667 408.833,53.1667 407.5,52.5 Z"/></g>
<g><path style="opacity:0.133" fill="#eeefee" d="M 409.5,52.5 C 410.833,53.1667 410.833,53.1667 409.5,52.5 Z"/></g>
<g><path style="opacity:0.133" fill="#eeefee" d="M 423.5,53.5 C 424.251,52.4265 425.251,52.2599 426.5,53C 425.552,53.4828 424.552,53.6495 423.5,53.5 Z"/></g>
<g><path style="opacity:0.133" fill="#eeefee" d="M 427.5,52.5 C 428.833,53.1667 428.833,53.1667 427.5,52.5 Z"/></g>
<g><path style="opacity:0.133" fill="#eeefee" d="M 434.5,53.5 C 435.251,52.4265 436.251,52.2599 437.5,53C 436.552,53.4828 435.552,53.6495 434.5,53.5 Z"/></g>
<g><path style="opacity:0.133" fill="#eeefee" d="M 435.5,54.5 C 436.833,55.1667 436.833,55.1667 435.5,54.5 Z"/></g>
<g><path style="opacity:0.133" fill="#eeefee" d="M 437.5,54.5 C 438.833,55.1667 438.833,55.1667 437.5,54.5 Z"/></g>
<g><path style="opacity:0.133" fill="#eeefee" d="M 409.5,56.5 C 410.833,57.1667 410.833,57.1667 409.5,56.5 Z"/></g>
<g><path style="opacity:0.133" fill="#eeefee" d="M 411.5,56.5 C 412.833,57.1667 412.833,57.1667 411.5,56.5 Z"/></g>
<g><path style="opacity:0.133" fill="#eeefee" d="M 435.5,57.5 C 436.601,56.4017 437.934,56.235 439.5,57C 438.207,57.49 436.873,57.6567 435.5,57.5 Z"/></g>
<g><path style="opacity:1" fill="#a4a4a4" d="M 390.5,51.5 C 393.962,50.5184 397.629,50.185 401.5,50.5C 401.5,56.5 401.5,62.5 401.5,68.5C 400.511,63.0247 400.178,57.358 400.5,51.5C 397.167,51.5 393.833,51.5 390.5,51.5 Z"/></g>
<g><path style="opacity:0.133" fill="#eeefee" d="M 435.5,58.5 C 436.833,59.1667 436.833,59.1667 435.5,58.5 Z"/></g>
<g><path style="opacity:0.133" fill="#eeefee" d="M 437.5,58.5 C 438.833,59.1667 438.833,59.1667 437.5,58.5 Z"/></g>
<g><path style="opacity:1" fill="#dc150a" d="M 81.5,58.5 C 107.953,59.4513 120.786,73.118 120,99.5C 114.105,120.537 100.272,129.703 78.5,127C 58.9944,121.137 50.161,107.97 52,87.5C 55.7968,71.5353 65.6301,61.8686 81.5,58.5 Z"/></g>
<g><path style="opacity:0.133" fill="#eeefee" d="M 433.5,60.5 C 434.833,61.1667 434.833,61.1667 433.5,60.5 Z"/></g>
<g><path style="opacity:0.133" fill="#eeefee" d="M 435.5,60.5 C 436.833,61.1667 436.833,61.1667 435.5,60.5 Z"/></g>
<g><path style="opacity:1" fill="#a3a3a3" d="M 199.5,56.5 C 200.787,57.8714 201.453,59.7047 201.5,62C 201.494,64.0326 201.161,65.866 200.5,67.5C 200.756,63.7307 200.423,60.0641 199.5,56.5 Z"/></g>
<g><path style="opacity:0.133" fill="#eeefee" d="M 431.5,64.5 C 432.833,65.1667 432.833,65.1667 431.5,64.5 Z"/></g>
<g><path style="opacity:1" fill="#3b3b3b" d="M 462.5,117.5 C 459.833,117.5 457.167,117.5 454.5,117.5C 454.216,119.415 454.549,121.081 455.5,122.5C 459.382,133.949 467.382,138.449 479.5,136C 484.987,134.922 489.987,132.756 494.5,129.5C 497.231,133.796 499.565,138.296 501.5,143C 487.357,152.682 472.023,155.015 455.5,150C 445.507,146.007 439.007,138.84 436,128.5C 431.732,112.04 433.732,96.3732 442,81.5C 453.082,67.8493 467.249,63.0159 484.5,67C 495.191,70.354 500.857,77.6874 501.5,89C 500.485,101.351 494.152,109.684 482.5,114C 476.019,116.263 469.352,117.43 462.5,117.5 Z M 461.5,103.5 C 459.167,103.5 456.833,103.5 454.5,103.5C 454.5,102.167 454.5,100.833 454.5,99.5C 455.534,92.9324 458.534,87.4324 463.5,83C 468.782,80.0034 474.115,79.8367 479.5,82.5C 484.074,89.9586 482.408,95.7919 474.5,100C 470.268,101.612 465.934,102.779 461.5,103.5 Z"/></g>
<g><path style="opacity:1" fill="#3b3b3b" d="M 631.5,117.5 C 628.833,117.5 626.167,117.5 623.5,117.5C 623.205,119.735 623.539,121.735 624.5,123.5C 628.914,134.21 636.914,138.376 648.5,136C 653.987,134.922 658.987,132.756 663.5,129.5C 666.886,134.06 668.886,138.893 669.5,144C 652.193,154.436 634.526,155.103 616.5,146C 606.773,136.833 602.106,125.5 602.5,112C 602.352,95.7326 608.352,82.3992 620.5,72C 634.914,63.4409 649.248,63.4409 663.5,72C 671.299,81.9554 672.132,92.4554 666,103.5C 656.67,113.336 645.17,118.003 631.5,117.5 Z M 630.5,103.5 C 628.167,103.5 625.833,103.5 623.5,103.5C 623.5,102.167 623.5,100.833 623.5,99.5C 624.735,88.7705 630.568,82.4371 641,80.5C 650.026,81.217 653.026,85.8837 650,94.5C 644.663,99.8957 638.163,102.896 630.5,103.5 Z"/></g>
<g><path style="opacity:1" fill="#6c6c6c" d="M 325.5,68.5 C 325.5,72.8333 325.5,77.1667 325.5,81.5C 327.735,81.2053 329.735,81.5386 331.5,82.5C 329.167,82.5 326.833,82.5 324.5,82.5C 324.181,77.6367 324.514,72.97 325.5,68.5 Z"/></g>
<g><path style="opacity:1" fill="#333333" d="M 325.5,68.5 C 334.833,68.5 344.167,68.5 353.5,68.5C 353.5,91.5 353.5,114.5 353.5,137.5C 356.5,137.5 359.5,137.5 362.5,137.5C 362.5,141.5 362.5,145.5 362.5,149.5C 349.833,149.5 337.167,149.5 324.5,149.5C 324.5,145.833 324.5,142.167 324.5,138.5C 326.877,137.113 329.543,136.279 332.5,136C 333.191,134.933 333.691,133.766 334,132.5C 334.667,117.167 334.667,101.833 334,86.5C 333.8,84.6803 332.966,83.347 331.5,82.5C 329.735,81.5386 327.735,81.2053 325.5,81.5C 325.5,77.1667 325.5,72.8333 325.5,68.5 Z"/></g>
<g><path style="opacity:1" fill="#3a3a3a" d="M 543.5,81.5 C 541.076,81.1924 538.743,81.5258 536.5,82.5C 536.624,83.1067 536.957,83.44 537.5,83.5C 542.761,100.119 547.928,116.785 553,133.5C 558.692,116.756 564.192,99.923 569.5,83C 566.776,82.7305 564.109,82.2305 561.5,81.5C 560.508,77.2172 560.174,72.8839 560.5,68.5C 572.167,68.5 583.833,68.5 595.5,68.5C 595.5,72.8333 595.5,77.1667 595.5,81.5C 591.987,80.8757 589.153,81.8757 587,84.5C 580.097,106.374 572.93,128.041 565.5,149.5C 556.749,149.803 548.082,149.47 539.5,148.5C 531.799,126.563 523.799,104.73 515.5,83C 512.986,81.7475 510.32,81.2475 507.5,81.5C 507.5,77.1667 507.5,72.8333 507.5,68.5C 520.5,68.5 533.5,68.5 546.5,68.5C 546.5,72.8333 546.5,77.1667 546.5,81.5C 545.5,81.5 544.5,81.5 543.5,81.5 Z"/></g>
<g><path style="opacity:1" fill="#a0a0a0" d="M 284.5,88.5 C 283.833,84.8333 283.167,81.1667 282.5,77.5C 282.461,76.2438 282.961,75.2438 284,74.5C 284.499,79.1548 284.666,83.8215 284.5,88.5 Z"/></g>
<g><path style="opacity:1" fill="#898989" d="M 370.5,80.5 C 374.167,81.1667 377.833,81.8333 381.5,82.5C 377.445,82.8242 373.445,82.4909 369.5,81.5C 369.624,80.8933 369.957,80.56 370.5,80.5 Z"/></g>
<g><path style="opacity:1" fill="#878787" d="M 421.5,78.5 C 421.5,79.8333 421.5,81.1667 421.5,82.5C 414.738,82.7349 408.072,82.7349 401.5,82.5C 407.645,81.5098 413.978,81.1765 420.5,81.5C 420.263,80.209 420.596,79.209 421.5,78.5 Z"/></g>
<g><path style="opacity:1" fill="#cbcbcb" d="M 543.5,81.5 C 541.5,82.1667 539.5,82.8333 537.5,83.5C 536.957,83.44 536.624,83.1067 536.5,82.5C 538.743,81.5258 541.076,81.1924 543.5,81.5 Z"/></g>
<g><path style="opacity:1" fill="#cacaca" d="M 219.5,78.5 C 218.833,80.5 218.167,82.5 217.5,84.5C 217.335,81.4816 217.502,78.4816 218,75.5C 219.039,76.2438 219.539,77.2438 219.5,78.5 Z"/></g>
<g><path style="opacity:0.133" fill="#eeefee" d="M 357.5,82.5 C 358.833,83.1667 358.833,83.1667 357.5,82.5 Z"/></g>
<g><path style="opacity:1" fill="#afafaf" d="M 220.5,82.5 C 222.104,83.287 222.771,84.6203 222.5,86.5C 221.326,85.4863 220.66,84.153 220.5,82.5 Z"/></g>
<g><path style="opacity:0.133" fill="#eeefee" d="M 357.5,84.5 C 358.833,85.1667 358.833,85.1667 357.5,84.5 Z"/></g>
<g><path style="opacity:0.133" fill="#eeefee" d="M 359.5,84.5 C 360.833,85.1667 360.833,85.1667 359.5,84.5 Z"/></g>
<g><path style="opacity:0.133" fill="#eeefee" d="M 359.5,88.5 C 360.833,89.1667 360.833,89.1667 359.5,88.5 Z"/></g>
<g><path style="opacity:0.133" fill="#eeefee" d="M 361.5,88.5 C 362.833,89.1667 362.833,89.1667 361.5,88.5 Z"/></g>
<g><path style="opacity:1" fill="#9a9a9a" d="M 401.5,82.5 C 401.881,83.9311 402.881,84.7645 404.5,85C 403.552,85.4828 402.552,85.6495 401.5,85.5C 401.5,99.5 401.5,113.5 401.5,127.5C 400.167,112.5 400.167,97.5 401.5,82.5 Z"/></g>
<g><path style="opacity:1" fill="#a7a7a7" d="M 454.5,99.5 C 454.5,100.833 454.5,102.167 454.5,103.5C 456.833,103.5 459.167,103.5 461.5,103.5C 459.052,104.473 456.385,104.806 453.5,104.5C 453.216,102.585 453.549,100.919 454.5,99.5 Z"/></g>
<g><path style="opacity:1" fill="#a8a8a8" d="M 623.5,99.5 C 623.5,100.833 623.5,102.167 623.5,103.5C 625.833,103.5 628.167,103.5 630.5,103.5C 628.052,104.473 625.385,104.806 622.5,104.5C 622.216,102.585 622.549,100.919 623.5,99.5 Z"/></g>
<g><path style="opacity:1" fill="#bcbcbc" d="M 462.5,117.5 C 460.393,118.468 458.059,118.802 455.5,118.5C 455.5,119.833 455.5,121.167 455.5,122.5C 454.549,121.081 454.216,119.415 454.5,117.5C 457.167,117.5 459.833,117.5 462.5,117.5 Z"/></g>
<g><path style="opacity:1" fill="#b6b6b6" d="M 631.5,117.5 C 629.393,118.468 627.059,118.802 624.5,118.5C 624.5,120.167 624.5,121.833 624.5,123.5C 623.539,121.735 623.205,119.735 623.5,117.5C 626.167,117.5 628.833,117.5 631.5,117.5 Z"/></g>
<g><path style="opacity:1" fill="#9f9f9f" d="M 187.5,136.5 C 187.5,140.833 187.5,145.167 187.5,149.5C 200.167,149.5 212.833,149.5 225.5,149.5C 212.677,150.495 199.677,150.829 186.5,150.5C 186.181,145.637 186.514,140.97 187.5,136.5 Z"/></g>
<g><path style="opacity:1" fill="#969696" d="M 305.5,131.5 C 306.434,132.568 306.768,133.901 306.5,135.5C 309.833,135.5 313.167,135.5 316.5,135.5C 316.5,140.5 316.5,145.5 316.5,150.5C 303.167,150.5 289.833,150.5 276.5,150.5C 276.5,145.833 276.5,141.167 276.5,136.5C 277.833,136.5 279.167,136.5 280.5,136.5C 279.791,137.404 278.791,137.737 277.5,137.5C 277.5,141.5 277.5,145.5 277.5,149.5C 290.167,149.5 302.833,149.5 315.5,149.5C 315.5,145.167 315.5,140.833 315.5,136.5C 312.167,136.5 308.833,136.5 305.5,136.5C 305.5,134.833 305.5,133.167 305.5,131.5 Z"/></g>
<g><path style="opacity:1" fill="#afafaf" d="M 353.5,68.5 C 354.497,90.9939 354.831,113.661 354.5,136.5C 357.5,136.5 360.5,136.5 363.5,136.5C 363.5,141.167 363.5,145.833 363.5,150.5C 350.167,150.5 336.833,150.5 323.5,150.5C 323.183,146.298 323.517,142.298 324.5,138.5C 324.5,142.167 324.5,145.833 324.5,149.5C 337.167,149.5 349.833,149.5 362.5,149.5C 362.5,145.5 362.5,141.5 362.5,137.5C 359.5,137.5 356.5,137.5 353.5,137.5C 353.5,114.5 353.5,91.5 353.5,68.5 Z"/></g>
<g><path style="opacity:1" fill="#9d9d9d" d="M 539.5,148.5 C 548.082,149.47 556.749,149.803 565.5,149.5C 561.347,150.166 557.013,150.499 552.5,150.5C 547.778,150.492 543.445,149.825 539.5,148.5 Z"/></g>
<g><path style="opacity:0.133" fill="#eeefee" d="M 574.5,172.5 C 575.833,173.167 575.833,173.167 574.5,172.5 Z"/></g>
<g><path style="opacity:0.133" fill="#eeefee" d="M 209.5,184.5 C 210.833,185.167 210.833,185.167 209.5,184.5 Z"/></g>
<g><path style="opacity:0.133" fill="#eeefee" d="M 211.5,184.5 C 212.833,185.167 212.833,185.167 211.5,184.5 Z"/></g>
<g><path style="opacity:0.133" fill="#eeefee" d="M 571.5,185.5 C 572.946,184.387 574.613,184.22 576.5,185C 574.866,185.494 573.199,185.66 571.5,185.5 Z"/></g>
</svg>
